<svg width="120" height="24" viewBox="0 0 120 24" fill="none" xmlns="http://www.w3.org/2000/svg">
<g opacity="0.4">
<path fill-rule="evenodd" clip-rule="evenodd" d="M85.8751 10.6027H79.1479C79.1479 11.3023 79.1479 12.7015 79.1436 13.4011H83.0418C82.8925 14.1007 82.3628 15.0802 81.6145 15.5734C81.6138 15.5727 81.6131 15.5776 81.6116 15.5769C80.6167 16.2338 79.3037 16.3829 78.3288 16.187C76.8007 15.8833 75.5913 14.7752 75.1003 13.3675C75.1032 13.3654 75.1053 13.3459 75.1075 13.3445C74.8001 12.4714 74.8001 11.3023 75.1075 10.6027H75.1067C75.5027 9.31683 76.7485 8.14359 78.2788 7.82247C79.5096 7.56152 80.8983 7.84416 81.9197 8.79982C82.0555 8.6669 83.7995 6.96405 83.9303 6.82553C80.4409 3.66541 74.8537 4.77708 72.7631 8.85789H72.7624C72.7624 8.85789 72.7631 8.85789 72.7588 8.86558C71.7246 10.87 71.7675 13.2318 72.766 15.1404C72.7631 15.1425 72.761 15.1438 72.7588 15.1459C73.6637 16.902 75.3105 18.2487 77.2946 18.7615C79.4024 19.3142 82.0848 18.9364 83.8817 17.3112C83.8824 17.3119 83.8831 17.3126 83.8838 17.3133C85.4062 15.9421 86.354 13.6061 85.8751 10.6027Z" fill="white"/>
<path fill-rule="evenodd" clip-rule="evenodd" d="M55 19H51.9231V13.3967C51.9231 11.8596 51.2715 11.0022 50.1031 11.0022C48.8315 11.0022 48.0769 11.8956 48.0769 13.3967V19H45V8.59243H48.0769V9.76288C48.0769 9.76288 49.0423 8 51.2177 8C53.3938 8 55 9.3818 55 12.2415C55 15.1004 55 19 55 19ZM40.5003 6C39.6715 6 39 5.32819 39 4.4997C39 3.67181 39.6715 3 40.5003 3C41.3285 3 42 3.67181 42 4.4997C42.0006 5.32819 41.3285 6 40.5003 6ZM39 19H42V9H39V19Z" fill="white"/>
<path fill-rule="evenodd" clip-rule="evenodd" d="M9.032 19C15.0696 19 18.372 13.6132 18.372 8.94228C18.372 8.78894 18.372 8.63646 18.3624 8.48484C19.0048 7.98518 19.5592 7.36492 20 6.65506C19.4016 6.94107 18.7656 7.12887 18.1152 7.21158C18.8 6.76964 19.3128 6.07529 19.5584 5.25603C18.9136 5.66781 18.2088 5.95813 17.4736 6.11406C16.2304 4.6909 14.1512 4.62198 12.8288 5.96071C11.9768 6.82391 11.6144 8.11096 11.8792 9.33856C9.24 9.19555 6.7808 7.85337 5.1136 5.64541C4.2424 7.26068 4.688 9.3265 6.1304 10.3637C5.608 10.3473 5.0968 10.1957 4.64 9.92178V9.96657C4.6408 11.649 5.7424 13.098 7.2736 13.4314C6.7904 13.5736 6.2832 13.5942 5.792 13.4917C6.2216 14.9321 7.4544 15.9185 8.8584 15.9469C7.696 16.9307 6.26 17.4649 4.7816 17.4631C4.5208 17.4623 4.26 17.4459 4 17.4123C5.5016 18.4495 7.248 19 9.032 18.9974" fill="white"/>
<path fill-rule="evenodd" clip-rule="evenodd" d="M109.457 19V12.25H111.643L112 9.25H109.457V7.789C109.457 7.0165 109.478 6.25 110.63 6.25H111.796V4.105C111.796 4.07275 110.794 4 109.781 4C107.664 4 106.339 5.24275 106.339 7.525V9.25H104V12.25H106.339V19H109.457Z" fill="white"/>
</g>
</svg>
