<svg width="134" height="40" viewBox="0 0 134 40" fill="none" xmlns="http://www.w3.org/2000/svg">
<path fill-rule="evenodd" clip-rule="evenodd" d="M84.1041 12.227L81.9252 8.57299L78.0577 10.4L75.8789 6.73516L72.0114 8.57299L69.8434 4.89732L65.976 6.73516L63.7971 3.07029L59.9296 4.90813L57.7616 1.23245L53.8833 3.07029L45.6798 29.5784L55.6481 32.6054C56.0236 31.4106 56.8174 30.3885 57.8861 29.7238C58.9547 29.0591 60.2277 28.7957 61.475 28.9811C62.7223 29.1665 63.8616 29.7885 64.6871 30.7347C65.5126 31.681 65.9697 32.889 65.976 34.1406V34.2487C65.9977 34.7243 65.9433 35.2 65.8016 35.6757L75.9333 38.7568L84.1041 12.227Z" fill="#D61920"/>
<path fill-rule="evenodd" clip-rule="evenodd" d="M54.2319 27.3946C53.9799 27.3533 53.7512 27.2236 53.5873 27.0292C53.4234 26.8349 53.3351 26.5886 53.3385 26.3352V13.3622C53.3371 13.2198 53.3643 13.0786 53.4185 12.9468C53.4727 12.815 53.5529 12.6952 53.6544 12.5945C53.7558 12.4938 53.8765 12.4143 54.0094 12.3605C54.1422 12.3066 54.2845 12.2797 54.428 12.2811H63.8733C64.4299 12.2797 64.9812 12.3871 65.4959 12.5971C66.0107 12.8071 66.4786 13.1157 66.8732 13.5052C67.2677 13.8947 67.5811 14.3575 67.7954 14.8672C68.0097 15.3769 68.1207 15.9234 68.1221 16.4757V26.3352C68.1218 26.4944 68.0861 26.6516 68.0175 26.7955C67.9489 26.9394 67.8491 27.0665 67.7253 27.1678C67.6014 27.269 67.4565 27.3418 67.301 27.381C67.1455 27.4202 66.9832 27.4249 66.8257 27.3946C66.5757 27.351 66.3496 27.2203 66.1878 27.0262C66.0261 26.832 65.9394 26.587 65.9433 26.3352V16.4865C65.9433 15.9417 65.7252 15.4193 65.337 15.0341C64.9488 14.6489 64.4223 14.4325 63.8733 14.4325H61.8143V26.3244C61.8152 26.4692 61.7867 26.6128 61.7305 26.7465C61.6744 26.8802 61.5917 27.0013 61.4875 27.1027C61.3635 27.2248 61.2114 27.3151 61.0444 27.366C60.8774 27.4168 60.7005 27.4266 60.5288 27.3946C60.2768 27.3533 60.0481 27.2236 59.8842 27.0292C59.7203 26.8349 59.632 26.5886 59.6355 26.3352V14.4325H55.5174V26.3244C55.5184 26.4834 55.4841 26.6407 55.4168 26.785C55.3495 26.9294 55.251 27.0572 55.1282 27.1594C55.0054 27.2616 54.8615 27.3357 54.7065 27.3764C54.5516 27.417 54.3895 27.4232 54.2319 27.3946ZM69.9415 33.0487C69.6876 33.0071 69.4574 32.8758 69.2933 32.6792C69.1291 32.4825 69.0421 32.2337 69.0481 31.9784C69.0493 31.6948 69.1628 31.423 69.3641 31.2216C69.5652 31.018 69.8393 30.9014 70.1267 30.8973C71.0527 30.8973 71.848 30.3135 72.1094 29.4379L73.2316 25.7298L69.5602 13.546C69.5164 13.4097 69.5003 13.2662 69.5128 13.1237C69.5253 12.9812 69.5662 12.8426 69.6331 12.7159C69.6999 12.5892 69.7915 12.4769 69.9024 12.3856C70.0133 12.2943 70.1414 12.2257 70.2792 12.1838C70.5536 12.1083 70.8468 12.1403 71.0981 12.273C71.3495 12.4058 71.5399 12.6293 71.6301 12.8973L74.3537 21.9784L77.1208 12.8973C77.2516 12.4 77.8072 12.0649 78.3737 12.173L78.4499 12.1838C79.0382 12.3676 79.3651 12.9838 79.1907 13.5568L75.4104 26.0541L74.212 30.0541C73.9431 30.9149 73.4099 31.6708 72.6868 32.2162C71.9514 32.7636 71.0569 33.0595 70.1376 33.0595C70.072 33.062 70.0064 33.0584 69.9415 33.0487Z" fill="#FEFEFE"/>
<path fill-rule="evenodd" clip-rule="evenodd" d="M3.35545 25.0271H5.49074C6.05994 25.0271 6.60583 24.8027 7.00832 24.4033C7.4108 24.0039 7.63692 23.4622 7.63692 22.8973V16.6595C7.63835 16.3798 7.58426 16.1026 7.47773 15.8437C7.37119 15.5847 7.21431 15.3492 7.01603 15.1504C6.81775 14.9516 6.58196 14.7936 6.32212 14.6852C6.06227 14.5769 5.78347 14.5204 5.50163 14.519H3.35545V25.0055V25.0271ZM2.01545 27.2541C1.75387 27.2103 1.51672 27.075 1.34689 26.8727C1.17705 26.6705 1.08573 26.4146 1.08944 26.1514V6.77843C1.08751 6.63021 1.11543 6.48309 1.17155 6.34572C1.22767 6.20835 1.31087 6.08347 1.41627 5.97843C1.54378 5.84704 1.70187 5.74874 1.87663 5.69219C2.0514 5.63564 2.23749 5.62256 2.41854 5.6541C2.96326 5.76221 3.35545 6.21626 3.35545 6.76762V12.2811H5.49074C6.06964 12.2797 6.64314 12.3916 7.17839 12.6105C7.71364 12.8293 8.20012 13.1508 8.60997 13.5565C9.01983 13.9622 9.345 14.4442 9.56687 14.9748C9.78873 15.5054 9.90294 16.0742 9.90293 16.6487V22.8865C9.90006 24.044 9.43543 25.1533 8.61065 25.9717C7.78586 26.7902 6.66805 27.2512 5.50163 27.2541H2.22245C2.14964 27.2584 2.07658 27.2548 2.00456 27.2433L2.01545 27.2541Z" fill="#333545"/>
<path fill-rule="evenodd" clip-rule="evenodd" d="M17.5834 14.4325C17.4611 14.4112 17.3372 14.4004 17.213 14.4C16.9304 14.3971 16.65 14.4502 16.3883 14.5562C16.1266 14.6623 15.8888 14.819 15.6889 15.0174C15.4891 15.2157 15.3311 15.4516 15.2243 15.7113C15.1174 15.971 15.0639 16.2493 15.0668 16.5298V23.027C15.0654 23.3071 15.1199 23.5847 15.2273 23.8438C15.3346 24.1028 15.4926 24.3381 15.6922 24.5362C15.8918 24.7342 16.129 24.8911 16.39 24.9976C16.651 25.1041 16.9308 25.1582 17.213 25.1568C17.7822 25.1568 18.3281 24.9324 18.7306 24.533C19.1331 24.1336 19.3592 23.5919 19.3592 23.027V16.5406C19.3592 15.4919 18.6075 14.6162 17.5834 14.4325ZM16.4395 27.3514C15.4181 27.1731 14.4929 26.6425 13.8272 25.8533C13.1615 25.0642 12.798 24.067 12.8008 23.0379V16.5406C12.7989 15.9655 12.9126 15.3959 13.1352 14.865C13.3578 14.3341 13.6848 13.8526 14.0972 13.4487C14.5063 13.0428 14.9921 12.7212 15.5268 12.5023C16.0615 12.2834 16.6346 12.1715 17.213 12.173C18.3803 12.173 19.4998 12.6332 20.3252 13.4522C21.1506 14.2713 21.6143 15.3822 21.6143 16.5406V23.0379C21.6143 24.2054 21.1567 25.3081 20.3179 26.1406C19.9105 26.5456 19.4265 26.8668 18.8937 27.0857C18.3608 27.3046 17.7897 27.4169 17.213 27.4162C16.9538 27.4173 16.6949 27.3956 16.4395 27.3514ZM29.2948 14.4433C29.1725 14.422 29.0486 14.4112 28.9244 14.4108C28.6417 14.4079 28.3614 14.4611 28.0996 14.5671C27.8379 14.6731 27.6002 14.8298 27.4003 15.0282C27.2004 15.2265 27.0425 15.4624 26.9356 15.7221C26.8288 15.9818 26.7753 16.2601 26.7782 16.5406V23.0379C26.7768 23.3179 26.8313 23.5955 26.9386 23.8546C27.046 24.1136 27.204 24.349 27.4036 24.547C27.6032 24.7451 27.8403 24.9019 28.1014 25.0084C28.3624 25.1149 28.6421 25.169 28.9244 25.1676C29.2066 25.169 29.4864 25.1149 29.7474 25.0084C30.0084 24.9019 30.2456 24.7451 30.4452 24.547C30.6448 24.349 30.8028 24.1136 30.9101 23.8546C31.0175 23.5955 31.072 23.3179 31.0706 23.0379V16.5406C31.0706 15.5027 30.3189 14.6271 29.2948 14.4433ZM28.1509 27.3514C27.1314 27.1708 26.2088 26.6393 25.5453 25.8503C24.8817 25.0613 24.5198 24.0655 24.5231 23.0379V16.5406C24.5248 15.9034 24.6666 15.2743 24.9386 14.6972C25.2107 14.1201 25.6063 13.6088 26.098 13.1991C26.5898 12.7894 27.1656 12.4911 27.7855 12.3251C28.4054 12.1591 29.0543 12.1293 29.687 12.2379C30.7086 12.4136 31.6349 12.9416 32.3025 13.7287C32.9702 14.5159 33.3364 15.5117 33.3366 16.5406V23.0379C33.3379 23.6154 33.223 24.1873 32.9985 24.7201C32.774 25.2529 32.4445 25.7359 32.0293 26.1406C31.6219 26.5456 31.1379 26.8668 30.605 27.0857C30.0722 27.3046 29.5011 27.4169 28.9244 27.4162C28.6629 27.4162 28.4015 27.3946 28.1509 27.3514ZM37.1605 27.3946C36.8989 27.3508 36.6618 27.2155 36.4919 27.0133C36.3221 26.811 36.2308 26.5551 36.2345 26.2919V6.7784C36.2345 6.4757 36.3434 6.18381 36.5613 5.9784C36.6898 5.85251 36.847 5.75926 37.0196 5.70656C37.1922 5.65386 37.3751 5.64327 37.5527 5.6757C38.0974 5.76219 38.5005 6.22705 38.5005 6.7784V18.3243L43.708 12.5298C43.9694 12.2487 44.3616 12.1189 44.7538 12.1838C44.9516 12.2166 45.1368 12.3015 45.2904 12.4294C45.4439 12.5574 45.56 12.7238 45.6268 12.9115C45.6935 13.0991 45.7084 13.301 45.6698 13.4962C45.6312 13.6915 45.5406 13.8729 45.4075 14.0216L41.4746 18.3784L45.5382 25.7622C45.6114 25.8867 45.6587 26.0245 45.6774 26.1675C45.6961 26.3104 45.6858 26.4557 45.6472 26.5946C45.605 26.7378 45.5341 26.8711 45.4386 26.9863C45.3431 27.1015 45.225 27.1963 45.0915 27.2649C44.8609 27.3965 44.5906 27.4425 44.3289 27.3946C44.1662 27.3673 44.0115 27.3047 43.8759 27.2113C43.7403 27.1178 43.6272 26.9959 43.5445 26.8541L39.8841 20.173L38.4896 21.6973V26.2919C38.4896 26.5901 38.3702 26.8761 38.1577 27.0869C37.9453 27.2978 37.6571 27.4162 37.3566 27.4162C37.2803 27.4162 37.215 27.4162 37.1387 27.3946H37.1605ZM87.0673 27.3838C86.4547 27.282 85.8727 27.0457 85.3638 26.6922C84.8549 26.3387 84.432 25.8769 84.1258 25.3406C83.9762 25.0778 83.937 24.767 84.0169 24.4757C84.1041 24.1946 84.2893 23.9568 84.5398 23.8054C84.7725 23.6793 85.042 23.6373 85.3024 23.6865C85.6293 23.7406 85.9234 23.9352 86.0868 24.227C86.381 24.7243 86.8494 25.0487 87.4268 25.146C87.7245 25.1973 88.0301 25.1812 88.3206 25.0988C88.6111 25.0164 88.8791 24.8699 89.1045 24.6703C89.5403 24.2703 89.7582 23.6973 89.7037 23.1352C89.6916 22.847 89.6114 22.5657 89.4694 22.3141C89.3275 22.0624 89.1278 21.8474 88.8867 21.6865L85.8363 19.5352C85.3393 19.1889 84.9254 18.738 84.6241 18.2148C84.3228 17.6916 84.1415 17.1088 84.0932 16.5081C84.0537 15.9021 84.1539 15.295 84.3861 14.7331C84.6183 14.1712 84.9763 13.6691 85.4332 13.2649C85.8789 12.8537 86.4113 12.5463 86.9917 12.3649C87.5721 12.1835 88.1859 12.1327 88.7886 12.2162C90.0741 12.4325 91.12 13.1676 91.7192 14.2054C91.8636 14.4648 91.9011 14.7696 91.8239 15.0558C91.7467 15.342 91.5608 15.5874 91.3052 15.7406C91.0745 15.8722 90.8043 15.9181 90.5426 15.8703C90.3798 15.843 90.2251 15.7804 90.0896 15.687C89.954 15.5935 89.8408 15.4716 89.7582 15.3298C89.6215 15.1004 89.4354 14.9039 89.2131 14.7544C88.9909 14.6048 88.738 14.506 88.4727 14.4649C88.2012 14.4161 87.9221 14.4308 87.6573 14.5077C87.3926 14.5847 87.1495 14.7218 86.9475 14.9081C86.7502 15.0929 86.5962 15.3184 86.4964 15.5687C86.3967 15.8191 86.3535 16.0881 86.3701 16.3568C86.3919 16.8865 86.6969 17.4054 87.1545 17.7081L90.2049 19.8162C90.7227 20.176 91.1509 20.6484 91.4567 21.1973C91.7626 21.7463 91.938 22.3573 91.9697 22.9838C92.0202 23.6074 91.9234 24.234 91.687 24.8139C91.4506 25.3938 91.0811 25.911 90.608 26.3243C90.1478 26.7487 89.598 27.0659 88.9987 27.2529C88.3994 27.4399 87.7657 27.492 87.1436 27.4054L87.0564 27.3838H87.0673ZM95.8154 27.4162C95.5538 27.3706 95.3166 27.2352 95.1453 27.0336C94.9741 26.8321 94.8796 26.5772 94.8785 26.3135V6.80003C94.8771 6.65198 94.9054 6.50512 94.9618 6.36806C95.0182 6.231 95.1016 6.10648 95.2071 6.00179C95.3126 5.8971 95.4381 5.81433 95.5762 5.75834C95.7144 5.70235 95.8623 5.67426 96.0115 5.6757L96.2294 5.68651C96.7741 5.79462 97.1445 6.23786 97.1445 6.80003V12.3135H99.2907C99.8691 12.3121 100.442 12.4241 100.977 12.6431C101.511 12.8621 101.997 13.1837 102.406 13.5896C102.815 13.9954 103.139 14.4775 103.36 15.008C103.581 15.5386 103.693 16.1071 103.692 16.6811V26.3027C103.693 26.466 103.658 26.6274 103.589 26.7756C103.52 26.9238 103.419 27.0552 103.293 27.1604C103.167 27.2656 103.02 27.3421 102.861 27.3845C102.702 27.4268 102.536 27.434 102.374 27.4054C101.829 27.3081 101.437 26.8433 101.437 26.2919V16.6703C101.437 16.3911 101.381 16.1147 101.273 15.8569C101.165 15.5991 101.007 15.3651 100.808 15.1682C100.608 14.9713 100.372 14.8154 100.111 14.7096C99.8509 14.6037 99.5721 14.55 99.2907 14.5514H97.1445V26.3027C97.1458 26.4671 97.1104 26.6296 97.0408 26.7788C96.9712 26.9279 96.8693 27.0599 96.7422 27.1653C96.6152 27.2707 96.4662 27.3469 96.3059 27.3884C96.1457 27.4299 95.9782 27.4357 95.8154 27.4054V27.4162ZM111.373 14.4541C111.064 14.3985 110.747 14.4111 110.443 14.491C110.14 14.5709 109.858 14.7161 109.618 14.9163C109.378 15.1166 109.185 15.3669 109.053 15.6495C108.921 15.9321 108.854 16.24 108.856 16.5514V23.0487C108.854 23.3278 108.909 23.6045 109.015 23.8629C109.122 24.1212 109.279 24.3561 109.477 24.554C109.676 24.7519 109.912 24.9089 110.172 25.0161C110.431 25.1232 110.71 25.1784 110.991 25.1784C111.558 25.1784 112.102 24.9622 112.506 24.5622C112.707 24.3645 112.867 24.1288 112.976 23.8688C113.084 23.6089 113.139 23.33 113.137 23.0487V16.5406C113.137 15.5027 112.397 14.6162 111.362 14.4433L111.373 14.4541ZM110.218 27.3406C109.199 27.1623 108.277 26.6329 107.613 25.8458C106.949 25.0586 106.587 24.0642 106.59 23.0379V16.5406C106.59 15.9025 106.731 15.2722 107.002 14.6938C107.273 14.1153 107.669 13.6027 108.161 13.1918C108.653 12.7809 109.229 12.4817 109.85 12.315C110.47 12.1484 111.12 12.1183 111.754 12.2271C112.777 12.4031 113.705 12.9326 114.373 13.7221C115.041 14.5115 115.406 15.5098 115.403 16.5406V23.0379C115.404 23.6136 115.289 24.1837 115.064 24.7147C114.84 25.2456 114.51 25.7267 114.096 26.1298C113.596 26.6277 112.983 26.998 112.307 27.2088C111.632 27.4197 110.915 27.4649 110.218 27.3406Z" fill="#333545"/>
<path fill-rule="evenodd" clip-rule="evenodd" d="M132.802 13.5568C132.839 13.4194 132.848 13.2762 132.83 13.1352C132.811 12.9942 132.764 12.8583 132.693 12.7352C132.61 12.6039 132.502 12.4904 132.375 12.4013C132.248 12.3122 132.104 12.2492 131.952 12.2162C131.671 12.1635 131.38 12.2192 131.139 12.3719C130.899 12.5246 130.725 12.7628 130.655 13.0379C130.655 13.0919 129.435 17.9676 128.477 21.6757L128.455 21.7514L128.433 21.6757L126.254 13.0487C126.212 12.8381 126.106 12.6453 125.95 12.4965C125.794 12.3476 125.596 12.2498 125.383 12.2162C125.318 12.2036 125.252 12.1964 125.187 12.1946C124.685 12.1946 124.25 12.5406 124.108 13.0379C124.097 13.0919 122.877 17.9676 121.929 21.6757L121.907 21.7514L121.886 21.6757C120.96 17.9676 119.707 13.0919 119.707 13.0379C119.655 12.8309 119.545 12.6432 119.388 12.4974C119.231 12.3516 119.036 12.2539 118.824 12.2162C118.643 12.1844 118.456 12.1978 118.282 12.2553C118.107 12.3127 117.949 12.4124 117.823 12.5453C117.696 12.6783 117.605 12.8403 117.557 13.0169C117.51 13.1934 117.507 13.3789 117.55 13.5568L120.829 26.5622C120.891 26.8005 121.03 27.0121 121.225 27.1644C121.42 27.3167 121.659 27.4014 121.907 27.4054C122.441 27.4054 122.866 27.0595 122.975 26.5622L125.154 17.9243L125.187 17.8487L125.208 17.9243C126.167 21.6757 127.387 26.573 127.387 26.573C127.452 26.8067 127.591 27.0136 127.783 27.1634C127.975 27.3132 128.211 27.398 128.455 27.4054C128.706 27.4132 128.952 27.3329 129.149 27.1787C129.346 27.0244 129.482 26.8062 129.533 26.5622L132.802 13.5568Z" fill="#333545"/>
</svg>
